<?xml version="1.0" encoding="UTF-8" standalone="no"?>
<svg xmlns="http://www.w3.org/2000/svg" width="800" height="400" viewBox="0 0 800 400">
  <defs>
    <linearGradient id="grad1" x1="0%" y1="0%" x2="100%" y2="100%">
      <stop offset="0%" style="stop-color:#FF00FF;stop-opacity:1" />
      <stop offset="100%" style="stop-color:#00FFFF;stop-opacity:1" />
    </linearGradient>
    <linearGradient id="grad2" x1="0%" y1="0%" x2="100%" y2="0%">
      <stop offset="0%" style="stop-color:#00FFFF;stop-opacity:1" />
      <stop offset="100%" style="stop-color:#FF00FF;stop-opacity:1" />
    </linearGradient>
    <filter id="glow">
      <feGaussianBlur stdDeviation="5" result="blur" />
      <feComposite in="SourceGraphic" in2="blur" operator="over" />
    </filter>
    <filter id="brainTexture">
      <feTurbulence type="fractalNoise" baseFrequency="0.05" numOctaves="3" result="noise" />
      <feDisplacementMap in="SourceGraphic" in2="noise" scale="10" xChannelSelector="R" yChannelSelector="G" />
    </filter>
  </defs>
  
  <!-- Background -->
  <rect width="800" height="400" fill="#0D1117" />
  
  <!-- Cyberpunk grid -->
  <g stroke="#00FFFF" stroke-width="0.5" opacity="0.1">
    <!-- Horizontal lines -->
    <line x1="0" y1="40" x2="800" y2="40" />
    <line x1="0" y1="80" x2="800" y2="80" />
    <line x1="0" y1="120" x2="800" y2="120" />
    <line x1="0" y1="160" x2="800" y2="160" />
    <line x1="0" y1="200" x2="800" y2="200" />
    <line x1="0" y1="240" x2="800" y2="240" />
    <line x1="0" y1="280" x2="800" y2="280" />
    <line x1="0" y1="320" x2="800" y2="320" />
    <line x1="0" y1="360" x2="800" y2="360" />
    
    <!-- Vertical lines -->
    <line x1="100" y1="0" x2="100" y2="400" />
    <line x1="200" y1="0" x2="200" y2="400" />
    <line x1="300" y1="0" x2="300" y2="400" />
    <line x1="400" y1="0" x2="400" y2="400" />
    <line x1="500" y1="0" x2="500" y2="400" />
    <line x1="600" y1="0" x2="600" y2="400" />
    <line x1="700" y1="0" x2="700" y2="400" />
  </g>
  
  <!-- Brain visualization -->
  <g transform="translate(400, 200)">
    <!-- Brain outline -->
    <path d="M-90,-50 C-100,-70 -90,-90 -70,-100 C-60,-110 -30,-110 -20,-100 C-10,-120 10,-120 20,-100 
             C30,-110 60,-110 70,-100 C90,-90 100,-70 90,-50 C100,-40 100,-20 90,-10 C100,10 90,30 80,40 
             C70,60 50,70 30,70 C20,80 0,80 -20,70 C-40,70 -60,60 -70,40 C-80,30 -90,10 -80,-10 C-90,-20 -90,-40 -80,-50 Z" 
          fill="none" stroke="#FF00FF" stroke-width="2" filter="url(#glow)" />
    
    <!-- Brain lobes with gradient -->
    <path d="M-60,-80 C-40,-90 -20,-80 0,-70 C20,-80 40,-90 60,-80 C50,-60 50,-40 60,-20 
             C50,0 50,20 40,40 C20,50 0,50 -20,40 C-40,20 -40,0 -50,-20 C-40,-40 -40,-60 -50,-80 Z" 
          fill="url(#grad1)" opacity="0.3" filter="url(#brainTexture)" />
    
    <!-- Neural connections -->
    <g stroke="url(#grad2)" stroke-width="1" opacity="0.7">
      <line x1="-60" y1="-60" x2="0" y2="-50" />
      <line x1="0" y1="-50" x2="60" y2="-60" />
      <line x1="-60" y1="-60" x2="-40" y2="-20" />
      <line x1="-40" y1="-20" x2="0" y2="-50" />
      <line x1="0" y1="-50" x2="40" y2="-20" />
      <line x1="40" y1="-20" x2="60" y2="-60" />
      <line x1="-40" y1="-20" x2="-30" y2="20" />
      <line x1="-30" y1="20" x2="0" y2="30" />
      <line x1="0" y1="30" x2="30" y2="20" />
      <line x1="30" y1="20" x2="40" y2="-20" />
      <line x1="-30" y1="20" x2="-20" y2="50" />
      <line x1="-20" y1="50" x2="0" y2="30" />
      <line x1="0" y1="30" x2="20" y2="50" />
      <line x1="20" y1="50" x2="30" y2="20" />
    </g>
    
    <!-- Neural nodes -->
    <circle cx="-60" cy="-60" r="5" fill="#FF00FF" filter="url(#glow)" />
    <circle cx="0" cy="-50" r="5" fill="#00FFFF" filter="url(#glow)" />
    <circle cx="60" cy="-60" r="5" fill="#FF00FF" filter="url(#glow)" />
    <circle cx="-40" cy="-20" r="5" fill="#00FFFF" filter="url(#glow)" />
    <circle cx="40" cy="-20" r="5" fill="#00FFFF" filter="url(#glow)" />
    <circle cx="-30" cy="20" r="5" fill="#FF00FF" filter="url(#glow)" />
    <circle cx="0" cy="30" r="5" fill="#00FFFF" filter="url(#glow)" />
    <circle cx="30" cy="20" r="5" fill="#FF00FF" filter="url(#glow)" />
    <circle cx="-20" cy="50" r="5" fill="#00FFFF" filter="url(#glow)" />
    <circle cx="20" cy="50" r="5" fill="#00FFFF" filter="url(#glow)" />
    
    <!-- Active scanning effect -->
    <circle cx="0" cy="0" r="130" fill="none" stroke="#00FFFF" stroke-width="1" opacity="0.3">
      <animate attributeName="r" values="130;150;130" dur="4s" repeatCount="indefinite" />
      <animate attributeName="opacity" values="0.3;0.1;0.3" dur="4s" repeatCount="indefinite" />
    </circle>
    <circle cx="0" cy="0" r="100" fill="none" stroke="#FF00FF" stroke-width="1" opacity="0.3">
      <animate attributeName="r" values="100;120;100" dur="3s" repeatCount="indefinite" />
      <animate attributeName="opacity" values="0.3;0.1;0.3" dur="3s" repeatCount="indefinite" />
    </circle>
  </g>
  
  <!-- Data analysis elements -->
  <g transform="translate(180, 80)">
    <!-- Data waveform -->
    <path d="M-100,0 L-80,5 L-60,-10 L-40,15 L-20,-5 L0,0 L20,10 L40,-5 L60,10 L80,0 L100,-10" 
          fill="none" stroke="#FF00FF" stroke-width="2" />
    
    <!-- Marker lines -->
    <line x1="-60" y1="-50" x2="-60" y2="50" stroke="#00FFFF" stroke-width="0.5" opacity="0.5" />
    <line x1="0" y1="-50" x2="0" y2="50" stroke="#00FFFF" stroke-width="0.5" opacity="0.5" />
    <line x1="60" y1="-50" x2="60" y2="50" stroke="#00FFFF" stroke-width="0.5" opacity="0.5" />
    
    <!-- Data values -->
    <text x="-60" y="-60" font-family="monospace" font-size="10" fill="#00FFFF" text-anchor="middle">A1</text>
    <text x="0" y="-60" font-family="monospace" font-size="10" fill="#00FFFF" text-anchor="middle">A2</text>
    <text x="60" y="-60" font-family="monospace" font-size="10" fill="#00FFFF" text-anchor="middle">A3</text>
  </g>
  
  <g transform="translate(620, 80)">
    <!-- Data bar graph -->
    <rect x="-100" y="-20" width="30" height="50" fill="#FF00FF" opacity="0.5" />
    <rect x="-60" y="-40" width="30" height="70" fill="#FF00FF" opacity="0.5" />
    <rect x="-20" y="-10" width="30" height="40" fill="#FF00FF" opacity="0.5" />
    <rect x="20" y="-50" width="30" height="80" fill="#FF00FF" opacity="0.5" />
    <rect x="60" y="-30" width="30" height="60" fill="#FF00FF" opacity="0.5" />
    
    <!-- Baseline -->
    <line x1="-120" y1="30" x2="120" y2="30" stroke="#00FFFF" stroke-width="1" />
    
    <!-- Value indicators -->
    <text x="-85" y="45" font-family="monospace" font-size="8" fill="#00FFFF" text-anchor="middle">0.4</text>
    <text x="-45" y="45" font-family="monospace" font-size="8" fill="#00FFFF" text-anchor="middle">0.7</text>
    <text x="-5" y="45" font-family="monospace" font-size="8" fill="#00FFFF" text-anchor="middle">0.3</text>
    <text x="35" y="45" font-family="monospace" font-size="8" fill="#00FFFF" text-anchor="middle">0.8</text>
    <text x="75" y="45" font-family="monospace" font-size="8" fill="#00FFFF" text-anchor="middle">0.6</text>
  </g>
  
  <g transform="translate(180, 320)">
    <!-- Diagnostic matrix -->
    <rect x="-100" y="-40" width="200" height="80" fill="rgba(255, 0, 255, 0.1)" stroke="#FF00FF" stroke-width="1" />
    
    <!-- Matrix elements -->
    <line x1="-100" y1="-20" x2="100" y2="-20" stroke="#FF00FF" stroke-width="0.5" />
    <line x1="-100" y1="0" x2="100" y2="0" stroke="#FF00FF" stroke-width="0.5" />
    <line x1="-100" y1="20" x2="100" y2="20" stroke="#FF00FF" stroke-width="0.5" />
    
    <line x1="-60" y1="-40" x2="-60" y2="40" stroke="#FF00FF" stroke-width="0.5" />
    <line x1="-20" y1="-40" x2="-20" y2="40" stroke="#FF00FF" stroke-width="0.5" />
    <line x1="20" y1="-40" x2="20" y2="40" stroke="#FF00FF" stroke-width="0.5" />
    <line x1="60" y1="-40" x2="60" y2="40" stroke="#FF00FF" stroke-width="0.5" />
    
    <!-- Matrix values -->
    <text x="-80" y="-30" font-family="monospace" font-size="8" fill="#00FFFF">0.92</text>
    <text x="-40" y="-30" font-family="monospace" font-size="8" fill="#00FFFF">0.87</text>
    <text x="0" y="-30" font-family="monospace" font-size="8" fill="#00FFFF">0.75</text>
    <text x="40" y="-30" font-family="monospace" font-size="8" fill="#00FFFF">0.64</text>
    <text x="80" y="-30" font-family="monospace" font-size="8" fill="#00FFFF">0.58</text>
    
    <text x="-80" y="-10" font-family="monospace" font-size="8" fill="#00FFFF">0.45</text>
    <text x="-40" y="-10" font-family="monospace" font-size="8" fill="#00FFFF">0.93</text>
    <text x="0" y="-10" font-family="monospace" font-size="8" fill="#00FFFF">0.82</text>
    <text x="40" y="-10" font-family="monospace" font-size="8" fill="#00FFFF">0.71</text>
    <text x="80" y="-10" font-family="monospace" font-size="8" fill="#00FFFF">0.63</text>
    
    <text x="-80" y="10" font-family="monospace" font-size="8" fill="#00FFFF">0.38</text>
    <text x="-40" y="10" font-family="monospace" font-size="8" fill="#00FFFF">0.54</text>
    <text x="0" y="10" font-family="monospace" font-size="8" fill="#00FFFF">0.91</text>
    <text x="40" y="10" font-family="monospace" font-size="8" fill="#00FFFF">0.84</text>
    <text x="80" y="10" font-family="monospace" font-size="8" fill="#00FFFF">0.76</text>
    
    <text x="-80" y="30" font-family="monospace" font-size="8" fill="#00FFFF">0.29</text>
    <text x="-40" y="30" font-family="monospace" font-size="8" fill="#00FFFF">0.47</text>
    <text x="0" y="30" font-family="monospace" font-size="8" fill="#00FFFF">0.65</text>
    <text x="40" y="30" font-family="monospace" font-size="8" fill="#00FFFF">0.88</text>
    <text x="80" y="30" font-family="monospace" font-size="8" fill="#00FFFF">0.79</text>
  </g>
  
  <g transform="translate(620, 320)">
    <!-- Result indicator elements -->
    <circle cx="0" cy="0" r="60" fill="none" stroke="url(#grad1)" stroke-width="3" filter="url(#glow)" />
    <circle cx="0" cy="0" r="40" fill="none" stroke="#00FFFF" stroke-width="2" />
    
    <!-- Animated pulse -->
    <circle cx="0" cy="0" r="50" fill="none" stroke="#FF00FF" stroke-width="1" opacity="0.5">
      <animate attributeName="r" values="50;70;50" dur="2s" repeatCount="indefinite" />
      <animate attributeName="opacity" values="0.5;0.1;0.5" dur="2s" repeatCount="indefinite" />
    </circle>
    
    <!-- Analysis text -->
    <text x="0" y="-15" font-family="Arial" font-size="16" fill="#FF00FF" text-anchor="middle" filter="url(#glow)">ANALYSIS</text>
    <text x="0" y="15" font-family="Arial" font-size="18" fill="#00FFFF" text-anchor="middle" filter="url(#glow)">COMPLETE</text>
  </g>
  
  <!-- Title -->
  <text x="400" y="40" font-family="Arial" font-size="24" fill="url(#grad1)" text-anchor="middle" filter="url(#glow)">NEURAL DIAGNOSTIC SYSTEM</text>
  <text x="400" y="70" font-family="Arial" font-size="14" fill="#00FFFF" text-anchor="middle">ADVANCED BRAIN PATTERN ANALYSIS</text>
</svg>